<?xml version="1.0" encoding="utf-8"?>
<!-- Generator: Adobe Illustrator 19.2.0, SVG Export Plug-In . SVG Version: 6.00 Build 0)  -->
<!DOCTYPE svg PUBLIC "-//W3C//DTD SVG 1.1//EN" "http://www.w3.org/Graphics/SVG/1.1/DTD/svg11.dtd">
<svg version="1.1" xmlns="http://www.w3.org/2000/svg" xmlns:xlink="http://www.w3.org/1999/xlink" x="0px" y="0px" width="960px"
	 height="960px" viewBox="0 0 960 960" enable-background="new 0 0 960 960" xml:space="preserve">
<g id="Layer_1">
</g>
<g id="Board">
	<path d="M592.3,848.8H311.2c-43.5,0-78.9-35.4-78.9-78.9V294.1c0-43.5,35.4-78.9,78.9-78.9h281.1c43.5,0,78.9,35.4,78.9,78.9v475.9
		C671.2,813.4,635.8,848.8,592.3,848.8z M311.2,240.1c-29.7,0-53.9,24.2-53.9,53.9v475.9c0,29.7,24.2,53.9,53.9,53.9h281.1
		c29.7,0,53.9-24.2,53.9-53.9V294.1c0-29.7-24.2-53.9-53.9-53.9H311.2z M351.6,917.8H342c-25.3,0-45.8-20.6-45.8-45.8v-47.4h101.2
		V872C397.4,897.2,376.8,917.8,351.6,917.8z M321.2,849.6V872c0,11.5,9.3,20.8,20.8,20.8h9.6c11.5,0,20.8-9.3,20.8-20.8v-22.4H321.2
		z M559.4,917.8h-9.6c-25.3,0-45.8-20.6-45.8-45.8v-47.4h101.2V872C605.2,897.2,584.7,917.8,559.4,917.8z M529,849.6V872
		c0,11.5,9.3,20.8,20.8,20.8h9.6c11.5,0,20.8-9.3,20.8-20.8v-22.4H529z M566,478.8H337.4c-16.8,0-30.5-13.7-30.5-30.5v-66.1
		c0-42.6,34.7-77.3,77.3-77.3h135.1c42.6,0,77.3,34.7,77.3,77.3v66.1C596.6,465.1,582.9,478.8,566,478.8z M384.2,329.8
		c-28.9,0-52.3,23.5-52.3,52.3v66.1c0,3.1,2.5,5.5,5.5,5.5H566c3.1,0,5.5-2.5,5.5-5.5v-66.1c0-28.9-23.5-52.3-52.3-52.3H384.2z
		 M570.9,90.9c0-39.7-32.3-72-72-72h-94.3c-39.7,0-72,32.3-72,72v124.4h25V90.9c0-25.9,21.1-47,47-47h94.3c25.9,0,47,21.1,47,47
		v124.4h25V90.9z M739.2,598.2v-99.4c0-22.7-21.7-41.1-48.3-41.1h-20.2v25h20.2c12.6,0,23.3,7.4,23.3,16.1v99.4
		c0,8.7-10.7,16.1-23.3,16.1h-20.2v25h20.2C717.6,639.3,739.2,620.9,739.2,598.2z"/>
	<g>
	</g>
	<g>
	</g>
	<g>
	</g>
	<g>
	</g>
	<g>
	</g>
	<g>
	</g>
	<g>
	</g>
	<g>
	</g>
	<g>
	</g>
	<g>
	</g>
	<g>
	</g>
	<g>
	</g>
	<g>
	</g>
	<g>
	</g>
	<g>
	</g>
</g>
</svg>
