<?xml version="1.0" encoding="utf-8"?>
<!-- Generator: Adobe Illustrator 19.2.0, SVG Export Plug-In . SVG Version: 6.00 Build 0)  -->
<!DOCTYPE svg PUBLIC "-//W3C//DTD SVG 1.1//EN" "http://www.w3.org/Graphics/SVG/1.1/DTD/svg11.dtd">
<svg version="1.1" xmlns="http://www.w3.org/2000/svg" xmlns:xlink="http://www.w3.org/1999/xlink" x="0px" y="0px" width="297.8px"
	 height="549.8px" viewBox="0 0 297.8 549.8" enable-background="new 0 0 297.8 549.8" xml:space="preserve">
<g id="Layer_1">
</g>
<g id="Board">
	<g>
		<path fill="none" stroke="#FFFFFF" stroke-width="3" stroke-miterlimit="10" d="M219.3,498.2H43.1c-23,0-41.6-18.6-41.6-41.6
			V158.4c0-23,18.6-41.6,41.6-41.6h176.1c23,0,41.6,18.6,41.6,41.6v298.2C260.9,479.6,242.2,498.2,219.3,498.2z"/>
		<path fill="none" stroke="#FFFFFF" stroke-width="3" stroke-miterlimit="10" d="M68.4,548.3h-6c-11.5,0-20.9-9.3-20.9-20.9v-21.9
			h47.7v21.9C89.3,538.9,80,548.3,68.4,548.3z"/>
		<path fill="none" stroke="#FFFFFF" stroke-width="3" stroke-miterlimit="10" d="M198.7,548.3h-6c-11.5,0-20.9-9.3-20.9-20.9v-21.9
			h47.7v21.9C219.5,538.9,210.2,548.3,198.7,548.3z"/>
		<path fill="none" stroke="#FFFFFF" stroke-width="3" stroke-miterlimit="10" d="M202.8,266.3H59.5c-6.2,0-11.3-5.1-11.3-11.3
			v-41.4c0-22.4,18.2-40.6,40.6-40.6h84.6c22.4,0,40.6,18.2,40.6,40.6V255C214.1,261.3,209.1,266.3,202.8,266.3z"/>
		<path fill="none" stroke="#FFFFFF" stroke-width="3" stroke-miterlimit="10" d="M64.4,116.8v-78c0-20.6,16.7-37.3,37.3-37.3h59.1
			c20.6,0,37.3,16.7,37.3,37.3v78"/>
		<path fill="none" stroke="#FFFFFF" stroke-width="3" stroke-miterlimit="10" d="M261.2,268.7h12.7c12.4,0,22.4,8,22.4,17.9V349
			c0,9.9-10,17.9-22.4,17.9h-12.7"/>
	</g>
</g>
</svg>
