<?xml version="1.0" encoding="utf-8"?>
<!-- Generator: Adobe Illustrator 19.2.0, SVG Export Plug-In . SVG Version: 6.00 Build 0)  -->
<!DOCTYPE svg PUBLIC "-//W3C//DTD SVG 1.1//EN" "http://www.w3.org/Graphics/SVG/1.1/DTD/svg11.dtd">
<svg version="1.1" xmlns="http://www.w3.org/2000/svg" xmlns:xlink="http://www.w3.org/1999/xlink" x="0px" y="0px" width="403.5px"
	 height="415.8px" viewBox="0 0 403.5 415.8" enable-background="new 0 0 403.5 415.8" xml:space="preserve">
<g id="Layer_1">
</g>
<g id="Board">
	<g>
		<path fill="none" stroke="#FFFFFF" stroke-width="3" stroke-miterlimit="10" d="M1.5,370.6V185.6c0-24.1,19.6-43.7,43.7-43.7
			h313.1c24.1,0,43.7,19.6,43.7,43.7v184.9c0,24.1-19.6,43.7-43.7,43.7H45.2C21.1,414.3,1.5,394.7,1.5,370.6z"/>
		<path fill="none" stroke="#FFFFFF" stroke-width="3" stroke-miterlimit="10" d="M84.5,54H59.1c-17.4,0-31.5-14.1-31.5-31.5V3
			c0-0.8,0.7-1.5,1.5-1.5h85.6c0.8,0,1.5,0.7,1.5,1.5v19.5C116.1,39.9,101.9,54,84.5,54z"/>
		
			<rect x="46.7" y="54" transform="matrix(-1 -2.454056e-09 2.454056e-09 -1 143.5997 195.9716)" fill="none" stroke="#FFFFFF" stroke-width="3" stroke-miterlimit="10" width="50.1" height="87.9"/>
		<path fill="none" stroke="#FFFFFF" stroke-width="3" stroke-miterlimit="10" d="M346.6,54h-25.5c-17.4,0-31.5-14.1-31.5-31.5V3
			c0-0.8,0.7-1.5,1.5-1.5h85.6c0.8,0,1.5,0.7,1.5,1.5v19.5C378.1,39.9,364,54,346.6,54z"/>
		
			<rect x="308.8" y="54" transform="matrix(-1 -2.454056e-09 2.454056e-09 -1 667.6564 195.9716)" fill="none" stroke="#FFFFFF" stroke-width="3" stroke-miterlimit="10" width="50.1" height="87.9"/>
		
			<line fill="none" stroke="#FFFFFF" stroke-width="3" stroke-linecap="round" stroke-miterlimit="10" x1="71.8" y1="278.1" x2="301.3" y2="278.1"/>
		<polyline fill="none" stroke="#FFFFFF" stroke-width="3" stroke-linecap="round" stroke-miterlimit="10" points="240.3,209.9 
			311.8,278.1 240.3,349.6 		"/>
	</g>
</g>
</svg>
