<?xml version="1.0" encoding="utf-8"?>
<!-- Generator: Adobe Illustrator 19.2.0, SVG Export Plug-In . SVG Version: 6.00 Build 0)  -->
<!DOCTYPE svg PUBLIC "-//W3C//DTD SVG 1.1//EN" "http://www.w3.org/Graphics/SVG/1.1/DTD/svg11.dtd">
<svg version="1.1" xmlns="http://www.w3.org/2000/svg" xmlns:xlink="http://www.w3.org/1999/xlink" x="0px" y="0px" width="960px"
	 height="960px" viewBox="0 0 960 960" enable-background="new 0 0 960 960" xml:space="preserve">
<g id="Layer_1">
</g>
<g id="Board">
	<path d="M691.1,276.1l0.3,0.3c7.5,7.5,7.5,19.7,0,27.2L634,361.1l26.6,155.4c0.2,0.9-0.1,1.9-0.8,2.6L634,544.7
		c-1.5,1.5-4.1,0.9-4.8-1.1l-45.6-132.1L512,483l4.2,27.4c0.1,0.9-0.2,1.9-0.8,2.5l-23.2,23.2c-1.5,1.5-4.2,0.9-4.8-1.2l-13.2-41.6
		l-41.6-13.2c-2.1-0.7-2.7-3.3-1.2-4.8l23.2-23.2c0.7-0.7,1.6-1,2.5-0.8l27.4,4.2L556,384l-132.1-45.6c-2-0.7-2.6-3.3-1.1-4.8
		l25.7-25.7c0.7-0.7,1.6-1,2.6-0.8l155.4,26.6l57.5-57.5C671.4,268.5,683.6,268.5,691.1,276.1L691.1,276.1L691.1,276.1z
		 M634.4,545.1l25.7-25.7c0.8-0.8,1.1-1.9,1-3l-26.5-155.1l57.3-57.3c7.7-7.7,7.7-20.2,0-28l-0.3-0.3v0c-7.7-7.7-20.2-7.7-28,0
		L606.2,333l-155.1-26.5c-1.1-0.2-2.2,0.2-3,1l-25.7,25.7c-0.8,0.8-1.2,2-0.9,3.2s1.1,2.1,2.2,2.5l131.4,45.4l-70.8,70.8l-27.1-4.2
		c-1.1-0.2-2.2,0.2-2.9,1L431,474.9c-0.9,0.9-1.2,2.1-0.9,3.2c0.3,1.2,1.1,2.1,2.3,2.4l41.4,13.1l13.1,41.4c0.4,1.1,1.3,2,2.4,2.3
		c1.2,0.3,2.4-0.1,3.2-0.9l23.2-23.2c0.8-0.8,1.1-1.9,1-2.9l-4.2-27.1l70.8-70.8l45.4,131.4c0.4,1.1,1.3,1.9,2.5,2.2
		c0.3,0.1,0.5,0.1,0.8,0.1C632.8,546.1,633.7,545.8,634.4,545.1z M511.5,482.9l4.3,27.6c0.1,0.8-0.1,1.5-0.7,2.1l-23.2,23.2
		c-0.6,0.6-1.5,0.8-2.3,0.6c-0.8-0.2-1.5-0.8-1.7-1.6l-13.3-41.9l-41.9-13.3c-0.8-0.3-1.4-0.9-1.6-1.7s0-1.7,0.6-2.3l23.2-23.2
		c0.5-0.5,1.3-0.8,2.1-0.7l27.6,4.3l72.3-72.3L424,337.9c-0.8-0.3-1.4-0.9-1.6-1.7c-0.2-0.8,0.1-1.7,0.6-2.3l25.7-25.7
		c0.6-0.6,1.3-0.8,2.1-0.7l155.4,26.6l0.3,0l57.7-57.7c3.5-3.5,8.3-5.5,13.3-5.5c5,0,9.7,2,13.3,5.5l0.3,0.3
		c7.3,7.3,7.3,19.2,0,26.5l-57.7,57.7L660,516.6c0.1,0.8-0.1,1.6-0.7,2.1l-25.7,25.7c-0.6,0.6-1.4,0.8-2.2,0.6
		c-0.8-0.2-1.5-0.8-1.7-1.6l-45.9-132.9L511.5,482.9z M866.6,470.1L462.5,874.1c-18,18-41.6,27-65.2,27c-23.6,0-47.3-9-65.2-27
		L93.4,635.5c-36-36-36-94.5,0-130.5l404.1-404.1c36-36,94.5-36,130.5,0l238.7,238.7C902.6,375.5,902.6,434.1,866.6,470.1z
		 M546,755.3L212.2,421.5L111.1,522.7c-12.7,12.7-19.7,29.6-19.7,47.6s7,34.9,19.7,47.6l238.7,238.7c26.2,26.2,68.9,26.2,95.1,0
		L546,755.3z M848.9,357.3L610.3,118.6c-12.7-12.7-29.6-19.7-47.6-19.7c-18,0-34.9,7-47.6,19.7L229.9,403.8l333.8,333.8l285.2-285.2
		C875.2,426.2,875.2,383.5,848.9,357.3z M200.7,638.4l77.4-77.4c4.9-4.9,4.9-12.8,0-17.7c-4.9-4.9-12.8-4.9-17.7,0L183,620.7
		c-4.9,4.9-4.9,12.8,0,17.7c2.4,2.4,5.6,3.7,8.8,3.7S198.3,640.8,200.7,638.4z M154.9,592.5l77.4-77.4c4.9-4.9,4.9-12.8,0-17.7
		c-4.9-4.9-12.8-4.9-17.7,0l-77.4,77.4c-4.9,4.9-4.9,12.8,0,17.7c2.4,2.4,5.6,3.7,8.8,3.7S152.4,595,154.9,592.5z M246.6,684.2
		l77.4-77.4c4.9-4.9,4.9-12.8,0-17.7c-4.9-4.9-12.8-4.9-17.7,0l-77.4,77.4c-4.9,4.9-4.9,12.8,0,17.7c2.4,2.4,5.6,3.7,8.8,3.7
		S244.1,686.7,246.6,684.2z M292.4,730.1l77.4-77.4c4.9-4.9,4.9-12.8,0-17.7c-4.9-4.9-12.8-4.9-17.7,0l-77.4,77.4
		c-4.9,4.9-4.9,12.8,0,17.7c2.4,2.4,5.6,3.7,8.8,3.7S290,732.5,292.4,730.1z M338.3,775.9l77.4-77.4c4.9-4.9,4.9-12.8,0-17.7
		c-4.9-4.9-12.8-4.9-17.7,0l-77.4,77.4c-4.9,4.9-4.9,12.8,0,17.7c2.4,2.4,5.6,3.7,8.8,3.7S335.8,778.4,338.3,775.9z M384.1,821.8
		l77.4-77.4c4.9-4.9,4.9-12.8,0-17.7c-4.9-4.9-12.8-4.9-17.7,0l-77.4,77.4c-4.9,4.9-4.9,12.8,0,17.7c2.4,2.4,5.6,3.7,8.8,3.7
		S381.7,824.2,384.1,821.8z"/>
	<g>
	</g>
	<g>
	</g>
	<g>
	</g>
	<g>
	</g>
	<g>
	</g>
	<g>
	</g>
	<g>
	</g>
	<g>
	</g>
	<g>
	</g>
	<g>
	</g>
	<g>
	</g>
	<g>
	</g>
	<g>
	</g>
	<g>
	</g>
	<g>
	</g>
</g>
</svg>
