<?xml version="1.0" encoding="utf-8"?>
<!-- Generator: Adobe Illustrator 19.2.0, SVG Export Plug-In . SVG Version: 6.00 Build 0)  -->
<!DOCTYPE svg PUBLIC "-//W3C//DTD SVG 1.1//EN" "http://www.w3.org/Graphics/SVG/1.1/DTD/svg11.dtd">
<svg version="1.1" xmlns="http://www.w3.org/2000/svg" xmlns:xlink="http://www.w3.org/1999/xlink" x="0px" y="0px" width="227.6px"
	 height="419.5px" viewBox="0 0 227.6 419.5" enable-background="new 0 0 227.6 419.5" xml:space="preserve">
<g id="Layer_1">
</g>
<g id="Board">
	<g>
		<path fill="none" stroke="#FFFFFF" stroke-width="3" stroke-miterlimit="10" d="M167.4,379.9H33.2c-17.5,0-31.7-14.2-31.7-31.7
			V121c0-17.5,14.2-31.7,31.7-31.7h134.2c17.5,0,31.7,14.2,31.7,31.7v227.2C199.1,365.7,184.9,379.9,167.4,379.9z"/>
		<path fill="none" stroke="#FFFFFF" stroke-width="3" stroke-miterlimit="10" d="M52.5,418h-4.6c-8.8,0-15.9-7.1-15.9-15.9v-16.7
			h36.4v16.7C68.4,410.9,61.3,418,52.5,418z"/>
		<path fill="none" stroke="#FFFFFF" stroke-width="3" stroke-miterlimit="10" d="M151.7,418h-4.6c-8.8,0-15.9-7.1-15.9-15.9v-16.7
			h36.4v16.7C167.6,410.9,160.5,418,151.7,418z"/>
		<path fill="none" stroke="#FFFFFF" stroke-width="3" stroke-miterlimit="10" d="M154.9,203.2H45.7c-4.8,0-8.6-3.9-8.6-8.6v-31.5
			c0-17.1,13.9-31,31-31h64.5c17.1,0,31,13.9,31,31v31.5C163.5,199.4,159.6,203.2,154.9,203.2z"/>
		<path fill="none" stroke="#FFFFFF" stroke-width="3" stroke-miterlimit="10" d="M49.4,89.3V29.9c0-15.7,12.7-28.4,28.4-28.4h45
			c15.7,0,28.4,12.7,28.4,28.4v59.4"/>
		<path fill="none" stroke="#FFFFFF" stroke-width="3" stroke-miterlimit="10" d="M199.4,205.1h9.6c9.4,0,17.1,6.1,17.1,13.7v47.5
			c0,7.5-7.6,13.7-17.1,13.7h-9.6"/>
	</g>
</g>
</svg>
